<?xml version="1.0" encoding="utf-8"?>
<!-- Generator: Adobe Illustrator 16.0.0, SVG Export Plug-In . SVG Version: 6.00 Build 0)  -->
<!DOCTYPE svg PUBLIC "-//W3C//DTD SVG 1.1//EN" "http://www.w3.org/Graphics/SVG/1.1/DTD/svg11.dtd">
<svg version="1.1" id="Capa_1" xmlns="http://www.w3.org/2000/svg" xmlns:xlink="http://www.w3.org/1999/xlink" x="0px" y="0px"
	 width="350.758px" height="421.427px" viewBox="0 0 350.758 421.427" enable-background="new 0 0 350.758 421.427"
	 xml:space="preserve">
<g>
	
		<path id="path5915-3_1_" sodipodi:type="arc" sodipodi:cx="40.162052" sodipodi:cy="787.52545" sodipodi:rx="7.5667634" sodipodi:ry="7.5667634" fill="none" stroke="#8E00FC" stroke-width="3.1" stroke-linecap="round" stroke-linejoin="round" d="
		M319.33,62.447c0,6.269-5.082,11.349-11.352,11.349c-6.266,0-11.349-5.08-11.349-11.349s5.083-11.349,11.349-11.349
		C314.248,51.099,319.33,56.178,319.33,62.447z"/>
	
		<path id="path5915-6-5_1_" sodipodi:type="arc" sodipodi:cx="40.162052" sodipodi:cy="787.52545" sodipodi:rx="7.5667634" sodipodi:ry="7.5667634" fill="none" stroke="#8E00FC" stroke-width="3.1" stroke-linecap="round" stroke-linejoin="round" d="
		M316.712,293.14c0,6.266-5.083,11.346-11.352,11.346c-6.267,0-11.349-5.08-11.349-11.346c0-6.27,5.082-11.352,11.349-11.352
		C311.629,281.789,316.712,286.871,316.712,293.14z"/>
	
		<path id="path5941-0_1_" inkscape:connector-curvature="0" fill="none" stroke="#00FC8C" stroke-width="3.0272" stroke-linecap="round" stroke-linejoin="round" d="
		M315.777,197.549H191.126"/>
	
		<path id="path5915-4-6_1_" sodipodi:type="arc" sodipodi:cx="40.162052" sodipodi:cy="787.52545" sodipodi:rx="7.5667634" sodipodi:ry="7.5667634" fill="none" stroke="#00FC8C" stroke-width="3.1" stroke-linecap="round" stroke-linejoin="round" d="
		M258.657,60.893c2.083-2.45,5.187-4.003,8.655-4.003c6.266,0,11.349,5.081,11.349,11.349c0,6.269-5.083,11.35-11.349,11.35
		c-6.271,0-11.354-5.081-11.354-11.35C255.959,65.437,256.973,62.872,258.657,60.893"/>
	
		<path id="path5913-1_5_" sodipodi:type="arc" sodipodi:cx="-107.09881" sodipodi:cy="827.6875" sodipodi:rx="116.41174" sodipodi:ry="116.41174" fill="none" stroke="#8E00FC" stroke-width="3.1" stroke-linecap="round" stroke-linejoin="round" d="
		M297.705,301.501"/>
	
		<path id="path5913-1_2_" sodipodi:type="arc" sodipodi:cx="-107.09881" sodipodi:cy="827.6875" sodipodi:rx="116.41174" sodipodi:ry="116.41174" fill="none" stroke="#8E00FC" stroke-width="3.1" stroke-linecap="round" stroke-linejoin="round" d="
		M350.758,176.154"/>
	
		<path id="path5913-1_3_" sodipodi:type="arc" sodipodi:cx="-107.09881" sodipodi:cy="827.6875" sodipodi:rx="116.41174" sodipodi:ry="116.41174" fill="none" stroke="#8E00FC" stroke-width="3.1" stroke-linecap="round" stroke-linejoin="round" d="
		M299.615,52.69"/>
	
		<path id="path5913-1_1_" sodipodi:type="arc" sodipodi:cx="-107.09881" sodipodi:cy="827.6875" sodipodi:rx="116.41174" sodipodi:ry="116.41174" fill="none" stroke="#8E00FC" stroke-width="3.1" stroke-linecap="round" stroke-linejoin="round" d="
		M297.705,301.501c-31.433,30.488-74.302,49.258-121.553,49.258c-96.43,0-174.603-78.176-174.603-174.605
		C1.55,79.724,79.723,1.55,176.152,1.55c48.214,0,91.866,19.544,123.463,51.141"/>
	
		<path id="path5937-2_2_" sodipodi:type="arc" sodipodi:cx="-96.5" sodipodi:cy="820.86218" sodipodi:rx="94.5" sodipodi:ry="94.5" fill="none" stroke="#00FC8C" stroke-width="3.1" stroke-linecap="round" stroke-linejoin="round" d="
		M316.29,197.534c-10.309,68.133-69.125,120.356-140.138,120.356c-78.279,0-141.738-63.457-141.738-141.736
		S97.874,34.416,176.152,34.416c30.778,0,59.267,9.811,82.505,26.476"/>
	
		<path id="path5915-4-3-1_1_" sodipodi:type="arc" sodipodi:cx="40.162052" sodipodi:cy="787.52545" sodipodi:rx="7.5667634" sodipodi:ry="7.5667634" fill="none" stroke="#00FC8C" stroke-width="3.1" stroke-linecap="round" stroke-linejoin="round" d="
		M188.298,198.069c0,6.266-5.081,11.347-11.351,11.347c-6.268,0-11.349-5.081-11.349-11.347c0-6.269,5.081-11.35,11.349-11.35
		C183.217,186.719,188.298,191.8,188.298,198.069z"/>
</g>
<g>
	<path fill="#FFFFFF" d="M25.804,408.107h-11.22v-41.58h10.5c6.279,0,11.319,1.47,15.12,4.41c3.799,2.939,5.7,8.33,5.7,16.17
		C45.904,401.108,39.204,408.107,25.804,408.107z M33.364,376.517c-1.6-1.899-3.88-2.851-6.84-2.851h-2.1v27.301h2.1
		c3,0,5.29-1.029,6.87-3.091c1.58-2.06,2.37-5.648,2.37-10.77C35.764,381.947,34.964,378.417,33.364,376.517z"/>
	<path fill="#FFFFFF" d="M67.564,402.227c2.72,0,5.439-0.88,8.16-2.64l3.78,5.159c-1.56,1.36-3.42,2.431-5.58,3.21
		c-2.16,0.78-4.54,1.17-7.14,1.17c-3.561,0-6.58-0.71-9.06-2.13c-2.48-1.419-4.35-3.399-5.61-5.939c-1.26-2.54-1.89-5.49-1.89-8.851
		c0-3.199,0.609-6.09,1.83-8.67c1.22-2.58,3-4.62,5.34-6.12c2.34-1.5,5.13-2.25,8.37-2.25c3.04,0,5.68,0.651,7.92,1.95
		c2.239,1.301,3.969,3.181,5.19,5.641c1.22,2.46,1.83,5.391,1.83,8.79c0,1.319-0.06,2.46-0.18,3.42h-20.64
		C60.484,399.807,63.043,402.227,67.564,402.227z M61.624,383.417c-1.041,1.261-1.661,3.19-1.86,5.79h11.7
		c-0.081-5.119-1.98-7.68-5.7-7.68C64.043,381.527,62.664,382.157,61.624,383.417z"/>
	<path fill="#FFFFFF" d="M107.104,408.107h-11.16l-10.74-31.86h10.26l6.18,24.601l6.48-24.601h9.6L107.104,408.107z"/>
	<path fill="#FFFFFF" d="M139.563,402.227c2.72,0,5.439-0.88,8.16-2.64l3.78,5.159c-1.56,1.36-3.42,2.431-5.58,3.21
		c-2.16,0.78-4.54,1.17-7.14,1.17c-3.561,0-6.58-0.71-9.06-2.13c-2.48-1.419-4.35-3.399-5.61-5.939c-1.26-2.54-1.89-5.49-1.89-8.851
		c0-3.199,0.609-6.09,1.83-8.67c1.22-2.58,3-4.62,5.34-6.12c2.34-1.5,5.13-2.25,8.37-2.25c3.04,0,5.68,0.651,7.92,1.95
		c2.239,1.301,3.969,3.181,5.19,5.641c1.22,2.46,1.83,5.391,1.83,8.79c0,1.319-0.06,2.46-0.18,3.42h-20.64
		C132.483,399.807,135.042,402.227,139.563,402.227z M133.623,383.417c-1.041,1.261-1.661,3.19-1.86,5.79h11.7
		c-0.081-5.119-1.98-7.68-5.7-7.68C136.042,381.527,134.663,382.157,133.623,383.417z"/>
	<path fill="#FFFFFF" d="M176.282,398.087c0,2.36,1.359,3.539,4.08,3.539c1.479,0,3-0.319,4.561-0.96l2.22,6.36
		c-2.561,1.399-5.62,2.1-9.18,2.1c-3.72,0-6.51-1.069-8.37-3.21c-1.86-2.139-2.79-5.149-2.79-9.029v-26.82h-9.36v-6.479h18.84
		V398.087z"/>
	<path fill="#FFFFFF" d="M220.832,379.757c2.739,3.06,4.11,7.17,4.11,12.33c0,5.36-1.361,9.539-4.08,12.539
		c-2.721,3-6.521,4.5-11.4,4.5c-4.881,0-8.68-1.489-11.4-4.47c-2.721-2.979-4.08-7.149-4.08-12.51c0-3.399,0.609-6.369,1.83-8.91
		c1.221-2.54,3-4.52,5.34-5.939s5.109-2.131,8.311-2.131C214.302,375.167,218.092,376.697,220.832,379.757z M205.142,384.557
		c-0.92,1.58-1.38,4.109-1.38,7.59c0,3.521,0.46,6.07,1.38,7.65s2.359,2.369,4.32,2.369c1.959,0,3.399-0.799,4.32-2.399
		c0.92-1.6,1.38-4.16,1.38-7.68c0-3.44-0.46-5.95-1.38-7.53c-0.921-1.58-2.361-2.37-4.32-2.37
		C207.501,382.187,206.062,382.977,205.142,384.557z"/>
	<path fill="#FFFFFF" d="M258.122,379.577c1.879,2.94,2.82,7.11,2.82,12.511c0,3.28-0.492,6.21-1.471,8.789
		c-0.98,2.58-2.391,4.601-4.23,6.061s-4.02,2.189-6.539,2.189c-3.082,0-5.602-1.1-7.561-3.3v14.58l-9.48,1.021v-45.181h8.4
		l0.42,3.54c1.239-1.56,2.63-2.72,4.17-3.479c1.539-0.76,3.09-1.141,4.65-1.141C253.302,375.167,256.241,376.637,258.122,379.577z
		 M241.142,385.907v13.44c0.68,0.96,1.389,1.67,2.13,2.13c0.739,0.46,1.59,0.689,2.55,0.689c1.76,0,3.09-0.789,3.99-2.369
		s1.35-4.11,1.35-7.591c0-3.759-0.4-6.369-1.199-7.83c-0.801-1.459-2.001-2.189-3.601-2.189
		C244.36,382.187,242.62,383.427,241.142,385.907z"/>
	<path fill="#FFFFFF" d="M283.56,402.227c2.721,0,5.439-0.88,8.16-2.64l3.781,5.159c-1.561,1.36-3.42,2.431-5.58,3.21
		c-2.16,0.78-4.541,1.17-7.141,1.17c-3.561,0-6.58-0.71-9.061-2.13c-2.48-1.419-4.35-3.399-5.609-5.939s-1.891-5.49-1.891-8.851
		c0-3.199,0.609-6.09,1.83-8.67s3-4.62,5.34-6.12s5.131-2.25,8.371-2.25c3.039,0,5.68,0.651,7.92,1.95
		c2.24,1.301,3.969,3.181,5.189,5.641s1.83,5.391,1.83,8.79c0,1.319-0.061,2.46-0.18,3.42H275.88
		C276.479,399.807,279.04,402.227,283.56,402.227z M277.62,383.417c-1.041,1.261-1.66,3.19-1.859,5.79h11.699
		c-0.08-5.119-1.98-7.68-5.699-7.68C280.04,381.527,278.659,382.157,277.62,383.417z"/>
	<path fill="#FFFFFF" d="M333.239,376.247l-1.74,13.32h-6v-5.88c-1.76,0.32-3.32,1.28-4.68,2.88c-1.359,1.601-2.42,3.621-3.18,6.06
		v9.12h6.301v6.36h-19.98v-6.36h4.199v-19.199h-4.199v-6.301h11.459l1.68,7.141c1.16-2.72,2.621-4.75,4.381-6.09
		s3.92-2.011,6.48-2.011C329.88,375.287,331.64,375.608,333.239,376.247z"/>
</g>
</svg>
