<?xml version="1.0" encoding="UTF-8" standalone="no"?>
<!-- Created with Inkscape (http://www.inkscape.org/) -->

<svg
   xmlns:dc="http://purl.org/dc/elements/1.1/"
   xmlns:cc="http://creativecommons.org/ns#"
   xmlns:rdf="http://www.w3.org/1999/02/22-rdf-syntax-ns#"
   xmlns:svg="http://www.w3.org/2000/svg"
   xmlns="http://www.w3.org/2000/svg"
   xmlns:sodipodi="http://sodipodi.sourceforge.net/DTD/sodipodi-0.dtd"
   xmlns:inkscape="http://www.inkscape.org/namespaces/inkscape"
   width="53.066406mm"
   height="53.105286mm"
   viewBox="0 0 53.066406 53.105286"
   version="1.1"
   id="svg8"
   inkscape:version="0.92.2 2405546, 2018-03-11"
   sodipodi:docname="logo.svg"
   inkscape:export-filename="/home/rasalghul/Dropbox/PROYECTOS/portafolio v2/logo.png"
   inkscape:export-xdpi="96"
   inkscape:export-ydpi="96">
  <defs
     id="defs2">
    <clipPath
       clipPathUnits="userSpaceOnUse"
       id="clipPath902">
      <g
         id="use904"
         inkscape:label="Clip">
        <circle
           id="circle1072"
           cx="40.719612"
           cy="55.409496"
           r="26.42543"
           style="fill:#4f0d89;fill-opacity:1;stroke-width:0.26458332"
           clip-path="none" />
        <rect
           style="fill:#ffffff;fill-opacity:1;stroke-width:0;stroke-miterlimit:4;stroke-dasharray:none"
           id="rect1074"
           width="11.157997"
           height="15.158034"
           x="56.42157"
           y="41.240414" />
      </g>
    </clipPath>
    <clipPath
       clipPathUnits="userSpaceOnUse"
       id="clipPath914">
      <g
         inkscape:label="Clip"
         id="use916">
        <circle
           clip-path="none"
           r="20.194607"
           cy="55.592571"
           cx="40.389217"
           id="circle923"
           style="fill:#01ea83;fill-opacity:1;stroke-width:0;stroke-miterlimit:4;stroke-dasharray:none" />
        <g
           style="fill:#ffffff"
           clip-path="none"
           id="g929">
          <rect
             style="fill:#ffffff;fill-opacity:1;stroke-width:0;stroke-miterlimit:4;stroke-dasharray:none"
             id="rect925"
             width="14.299966"
             height="26.198408"
             x="46.442921"
             y="41.238022"
             ry="3.3839612" />
          <ellipse
             style="fill:#ffffff;fill-opacity:1;stroke-width:0;stroke-miterlimit:4;stroke-dasharray:none"
             id="ellipse927"
             cx="40.389217"
             cy="55.548042"
             rx="16.919806"
             ry="16.810646" />
        </g>
      </g>
    </clipPath>
  </defs>
  <sodipodi:namedview
     id="base"
     pagecolor="#ffffff"
     bordercolor="#666666"
     borderopacity="1.0"
     inkscape:pageopacity="0.0"
     inkscape:pageshadow="2"
     inkscape:zoom="2.6798003"
     inkscape:cx="192.43695"
     inkscape:cy="85.384689"
     inkscape:document-units="mm"
     inkscape:current-layer="layer1"
     showgrid="false"
     inkscape:window-width="1920"
     inkscape:window-height="1017"
     inkscape:window-x="0"
     inkscape:window-y="34"
     inkscape:window-maximized="1"
     fit-margin-top="0"
     fit-margin-left="0"
     fit-margin-right="0"
     fit-margin-bottom="0" />
  <metadata
     id="metadata5">
    <rdf:RDF>
      <cc:Work
         rdf:about="">
        <dc:format>image/svg+xml</dc:format>
        <dc:type
           rdf:resource="http://purl.org/dc/dcmitype/StillImage" />
        <dc:title></dc:title>
      </cc:Work>
    </rdf:RDF>
  </metadata>
  <g
     inkscape:label="Capa 1"
     inkscape:groupmode="layer"
     id="layer1"
     transform="translate(-14.284329,-28.729818)">
    <g
       id="g1082"
       inkscape:export-xdpi="96"
       inkscape:export-ydpi="96">
      <path
         inkscape:connector-curvature="0"
         id="path1066"
         d="m 40.837229,28.729818 a 26.552604,26.552604 0 0 0 -26.5529,26.552384 26.552604,26.552604 0 0 0 26.5529,26.5529 26.552604,26.552604 0 0 0 26.513507,-25.465627 H 63.622307 A 22.945924,22.945924 0 0 1 40.719407,78.449264 22.945924,22.945924 0 0 1 17.773521,55.503378 22.945924,22.945924 0 0 1 40.719407,32.557491 22.945924,22.945924 0 0 1 58.693957,41.240165 H 63.33447 A 26.552604,26.552604 0 0 0 40.837229,28.729818 Z"
         style="fill:#4f0d89;fill-opacity:1;stroke-width:0;stroke-miterlimit:4;stroke-dasharray:none" />
      <path
         inkscape:connector-curvature="0"
         id="path4528"
         transform="matrix(0.26458333,0,0,0.26458333,14.294182,28.984066)"
         d="m 98.626953,24.242188 a 76.326072,76.326072 0 0 0 -76.326172,76.326172 76.326072,76.326072 0 0 0 76.326172,76.32617 76.326072,76.326072 0 0 0 61.726567,-31.5625 H 143.7832 A 63.948871,63.5363 0 0 1 98.626953,163.93555 63.948871,63.5363 0 0 1 34.677734,100.39844 63.948871,63.5363 0 0 1 98.626953,36.863281 63.948871,63.5363 0 0 1 132.31055,46.484375 c 0.64881,-0.10063 1.30842,-0.169922 1.98633,-0.169922 h 17.92773 A 76.326072,76.326072 0 0 0 98.626953,24.242188 Z"
         clip-path="none"
         style="fill:#01ea83;fill-opacity:1;stroke-width:0;stroke-miterlimit:4;stroke-dasharray:none" />
      <rect
         ry="1.3279057"
         transform="rotate(90)"
         y="-67.347443"
         x="54.140869"
         height="25.989012"
         width="3.5735459"
         id="rect4524"
         style="fill:#4f0d89;fill-opacity:1;stroke-width:0;stroke-miterlimit:4;stroke-dasharray:none" />
      <path
         inkscape:connector-curvature="0"
         id="rect4534"
         transform="matrix(0.26458333,0,0,0.26458333,14.294182,28.984066)"
         d="m 114.6543,55.802734 c -1.3714,0 -2.47461,1.105167 -2.47461,2.476563 v 26.816406 c 0,1.371396 1.10321,2.476563 2.47461,2.476563 h 70.96289 c 1.37139,0 2.47461,-1.105167 2.47461,-2.476563 V 58.279297 c 0,-1.371396 -1.10322,-2.476563 -2.47461,-2.476563 z m 10.07812,3.900391 h 14.7832 l 1.30665,1.306641 v 19.787109 l -1.30665,1.306641 h -14.7832 l -1.30664,-1.306641 V 61.009766 Z m 3.69531,2.464844 V 65.9375 l 2.46485,2.464844 v 11.199218 h 7.4668 V 62.167969 Z m 17.33204,2.501953 h 12.43359 l 1.23047,1.230469 v 7.503906 l -1.23047,1.232422 h -6.23633 v 4.964843 h 5.00391 v -2.5 h 2.5 v 3.732422 l -1.26758,1.269532 H 145.79688 L 144.5293,80.833984 V 65.900391 Z m 17.42187,0 h 4.9668 l 1.26758,1.267578 v 13.664062 h 2.50195 V 75.90625 l 2.50195,-2.501953 v -8.734375 h 2.42578 V 75.90625 l -2.46289,2.464844 v 2.46289 l -1.26953,1.269532 h -7.39258 l -1.26953,-1.269532 V 75.90625 l -2.53906,-2.539062 V 65.9375 Z m -13.6875,2.5 v 4.964844 h 7.4668 v -4.964844 z"
         style="fill:#ffffff;fill-opacity:1;stroke-width:0;stroke-miterlimit:4;stroke-dasharray:none" />
    </g>
  </g>
</svg>
