<?xml version="1.0" encoding="UTF-8" standalone="no"?>
<!-- Created with Inkscape (http://www.inkscape.org/) -->

<svg
   xmlns:dc="http://purl.org/dc/elements/1.1/"
   xmlns:cc="http://creativecommons.org/ns#"
   xmlns:rdf="http://www.w3.org/1999/02/22-rdf-syntax-ns#"
   xmlns:svg="http://www.w3.org/2000/svg"
   xmlns="http://www.w3.org/2000/svg"
   version="1.2"
   width="217.86945"
   height="238.82358"
   id="svg3163">
  <defs
     id="defs3165" />
  <metadata
     id="metadata3169">
    <rdf:RDF>
      <cc:Work
         rdf:about="">
        <dc:format>image/svg+xml</dc:format>
        <dc:type
           rdf:resource="http://purl.org/dc/dcmitype/StillImage" />
        <dc:title></dc:title>
      </cc:Work>
    </rdf:RDF>
  </metadata>
  <g
     transform="translate(-357.36188,-225.80341)"
     id="layer1">
    <g
       transform="matrix(0.42435273,0,0,0.42435273,492.37298,5.1467188)"
       id="flowRoot5994-9"
       style="font-size:40px;font-style:normal;font-weight:normal;line-height:125%;letter-spacing:0px;word-spacing:0px;fill:#ffffff;fill-opacity:1;stroke:none;font-family:Sans">
      <g
         id="g3357">
        <g
           transform="matrix(2.3565301,0,0,2.3565301,-1160.2918,-12.128398)"
           id="g3310">
          <path
             d="m -25.894678,911.09963 a 116.41174,116.41174 0 1 1 1.351573,-165.48679"
             transform="translate(583.87252,-482.47232)"
             id="path5913-1"
             style="fill:none;stroke:#8e00fc;stroke-width:6;stroke-linecap:round;stroke-linejoin:round;stroke-miterlimit:4;stroke-opacity:1;stroke-dasharray:none" />
          <path
             d="m 47.728816,787.52545 a 7.5667634,7.5667634 0 1 1 -15.133527,0 7.5667634,7.5667634 0 1 1 15.133527,0 z"
             transform="translate(524.50253,-518.12055)"
             id="path5915-3"
             style="fill:none;stroke:#8e00fc;stroke-width:6;stroke-linecap:round;stroke-linejoin:round;stroke-miterlimit:4;stroke-opacity:1;stroke-dasharray:none" />
          <path
             d="m 47.728816,787.52545 a 7.5667634,7.5667634 0 1 1 -15.133527,0 7.5667634,7.5667634 0 1 1 15.133527,0 z"
             transform="translate(522.75635,-364.31439)"
             id="path5915-6-5"
             style="fill:none;stroke:#8e00fc;stroke-width:6;stroke-linecap:round;stroke-linejoin:round;stroke-miterlimit:4;stroke-opacity:1;stroke-dasharray:none" />
          <path
             d="M -3.0946274,835.20395 A 94.5,94.5 0 1 1 -42.307812,743.44476"
             transform="translate(573.27371,-475.647)"
             id="path5937-2"
             style="fill:none;stroke:#00fc8c;stroke-width:6;stroke-linecap:round;stroke-linejoin:round;stroke-miterlimit:4;stroke-opacity:1;stroke-dasharray:none" />
          <path
             d="m 47.728816,787.52545 a 7.5667634,7.5667634 0 1 1 -15.133527,0 7.5667634,7.5667634 0 1 1 15.133527,0 z"
             transform="translate(497.38769,-514.25915)"
             id="path5915-4-6"
             style="fill:none;stroke:#00fc8c;stroke-width:6;stroke-linecap:round;stroke-linejoin:round;stroke-miterlimit:4;stroke-opacity:1;stroke-dasharray:none" />
          <path
             d="m 47.728816,787.52545 a 7.5667634,7.5667634 0 1 1 -15.133527,0 7.5667634,7.5667634 0 1 1 15.133527,0 z"
             transform="translate(437.14212,-427.69941)"
             id="path5915-4-3-1"
             style="fill:none;stroke:#00fc8c;stroke-width:6;stroke-linecap:round;stroke-linejoin:round;stroke-miterlimit:4;stroke-opacity:1;stroke-dasharray:none" />
          <path
             d="m 570.30949,359.4798 -83.55214,0"
             id="path5941-0"
             style="fill:none;stroke:#00fc8c;stroke-width:6;stroke-linecap:round;stroke-linejoin:round;stroke-miterlimit:4;stroke-opacity:1;stroke-dasharray:none" />
        </g>
        <g
           id="g3338">
          <path
             d="m -177.672,762.675 c 0,-20.59198 -12.16801,-24.696 -24.984,-24.696 l -12.6,0 0,49.896 13.464,0 c 12.38399,0 24.12,-4.89602 24.12,-25.2 m -12.168,0 c 0,13.10399 -4.53601,16.632 -11.088,16.632 l -2.52,0 0,-32.76 2.52,0 c 6.26399,0 11.088,2.66401 11.088,16.128"
             id="path3320"
             style="font-size:72px;font-variant:normal;font-weight:bold;font-stretch:normal;fill:#ffffff;font-family:Fira Mono for Powerline;-inkscape-font-specification:Fira Mono for Powerline Bold" />
          <path
             d="m -160.92412,772.107 24.768,0 c 0.14399,-1.152 0.216,-2.808 0.216,-4.104 0,-12.31199 -6.98402,-19.656 -18.072,-19.656 -11.87999,0 -18.504,9.14401 -18.504,20.448 0,11.87999 6.76801,20.304 19.872,20.304 6.47999,0 11.664,-2.16 15.264,-5.256 l -4.752,-6.48 c -2.808,2.232 -6.12001,3.456 -9.576,3.456 -4.896,0 -8.42401,-2.44801 -9.216,-8.712 m 7.056,-16.128 c 4.89599,0 6.768,3.67201 6.84,9.216 l -14.04,0 c 0.50399,-6.33599 3.096,-9.216 7.2,-9.216"
             id="path3322"
             style="font-size:72px;font-variant:normal;font-weight:bold;font-stretch:normal;fill:#ffffff;font-family:Fira Mono for Powerline;-inkscape-font-specification:Fira Mono for Powerline Bold" />
          <path
             d="m -104.28825,787.875 12.744,-38.232 -11.52,0 -7.776,29.52 -7.488,-29.52 -12.24,0 12.888,38.232 13.392,0"
             id="path3324"
             style="font-size:72px;font-variant:normal;font-weight:bold;font-stretch:normal;fill:#ffffff;font-family:Fira Mono for Powerline;-inkscape-font-specification:Fira Mono for Powerline Bold" />
          <path
             d="m -74.580375,772.107 24.768,0 c 0.144,-1.152 0.216,-2.808 0.216,-4.104 0,-12.31199 -6.984011,-19.656 -18.072,-19.656 -11.879988,0 -18.504,9.14401 -18.504,20.448 0,11.87999 6.768013,20.304 19.872,20.304 6.479994,0 11.664004,-2.16 15.264,-5.256 l -4.752,-6.48 c -2.807997,2.232 -6.120003,3.456 -9.576,3.456 -4.895995,0 -8.424001,-2.44801 -9.216,-8.712 m 7.056,-16.128 c 4.895995,0 6.768,3.67201 6.84,9.216 l -14.04,0 c 0.503999,-6.33599 3.096004,-9.216 7.2,-9.216"
             id="path3326"
             style="font-size:72px;font-variant:normal;font-weight:bold;font-stretch:normal;fill:#ffffff;font-family:Fira Mono for Powerline;-inkscape-font-specification:Fira Mono for Powerline Bold" />
          <path
             d="m -21.3285,775.851 0,-41.4 -22.608,0 0,7.776 11.232,0 0,32.256 c 0,8.92799 4.176009,14.616 13.392,14.616 4.895995,0 8.424003,-1.152 11.016,-2.52 l -2.664,-7.632 c -1.583998,0.648 -3.528002,1.152 -5.472,1.152 -3.023997,0 -4.896,-1.152 -4.896,-4.248"
             id="path3328"
             style="font-size:72px;font-variant:normal;font-weight:bold;font-stretch:normal;fill:#ffffff;font-family:Fira Mono for Powerline;-inkscape-font-specification:Fira Mono for Powerline Bold" />
          <path
             d="m 18.459375,748.347 c -11.7359883,0 -18.576,8.20801 -18.576,20.376 0,12.88799 6.8400117,20.376 18.576,20.376 11.735988,0 18.576,-7.63201 18.576,-20.448 0,-12.23999 -6.768012,-20.304 -18.576,-20.304 m 0,8.424 c 4.679995,0 6.84,3.60001 6.84,11.88 0,8.56799 -2.160005,12.096 -6.84,12.096 -4.679995,0 -6.84,-3.52801 -6.84,-12.024 0,-8.35199 2.160005,-11.952 6.84,-11.952"
             id="path3330"
             style="font-size:72px;font-variant:normal;font-weight:bold;font-stretch:normal;fill:#ffffff;font-family:Fira Mono for Powerline;-inkscape-font-specification:Fira Mono for Powerline Bold" />
          <path
             d="m 66.23925,748.347 c -3.599996,0 -7.488003,1.656 -10.584,5.616 l -0.504,-4.32 -10.08,0 0,54.216 11.376,-1.224 0,-17.496 c 2.303998,2.592 5.328004,3.96 9.072,3.96 9.287991,0 14.688,-8.64001 14.688,-20.448 0,-12.45599 -4.03201,-20.304 -13.968,-20.304 m -3.528,8.424 c 3.599996,0 5.76,2.52001 5.76,12.024 0,8.63999 -2.376004,11.952 -6.408,11.952 -2.447998,0 -4.032002,-1.08 -5.616,-3.384 l 0,-16.128 c 1.655998,-2.808 3.600003,-4.464 6.264,-4.464"
             id="path3332"
             style="font-size:72px;font-variant:normal;font-weight:bold;font-stretch:normal;fill:#ffffff;font-family:Fira Mono for Powerline;-inkscape-font-specification:Fira Mono for Powerline Bold" />
          <path
             d="m 98.107125,772.107 24.767995,0 c 0.144,-1.152 0.21601,-2.808 0.21601,-4.104 0,-12.31199 -6.98402,-19.656 -18.072,-19.656 -11.879993,0 -18.504005,9.14401 -18.504005,20.448 0,11.87999 6.768013,20.304 19.871995,20.304 6.48,0 11.66401,-2.16 15.26401,-5.256 l -4.75201,-6.48 c -2.80799,2.232 -6.12,3.456 -9.57599,3.456 -4.896,0 -8.424006,-2.44801 -9.216005,-8.712 m 7.056005,-16.128 c 4.89599,0 6.768,3.67201 6.83999,9.216 l -14.039995,0 c 0.503999,-6.33599 3.096005,-9.216 7.200005,-9.216"
             id="path3334"
             style="font-size:72px;font-variant:normal;font-weight:bold;font-stretch:normal;fill:#ffffff;font-family:Fira Mono for Powerline;-inkscape-font-specification:Fira Mono for Powerline Bold" />
          <path
             d="m 131.775,787.875 29.016,0 0,-7.776 -9.72,0 0,-11.52 c 1.224,-5.11199 3.888,-9 8.64,-9 1.728,0 3.024,0.216 4.392,0.576 l 1.872,-11.016 c -1.656,-0.432 -2.808,-0.648 -4.752,-0.648 -4.68,0 -8.784,3.16801 -10.512,8.28 l -0.936,-7.128 -18,0 0,7.776 7.92,0 0,22.68 -7.92,0 0,7.776"
             id="path3336"
             style="font-size:72px;font-variant:normal;font-weight:bold;font-stretch:normal;fill:#ffffff;font-family:Fira Mono for Powerline;-inkscape-font-specification:Fira Mono for Powerline Bold" />
        </g>
      </g>
    </g>
  </g>
</svg>
