<?xml version="1.0" encoding="utf-8"?> <!DOCTYPE svg PUBLIC "-//W3C//DTD SVG 1.1//EN" "http://www.w3.org/Graphics/SVG/1.1/DTD/svg11.dtd" [ <!ENTITY st0 "fill:#EA5A37;"> ]> <svg version="1.1" xmlns="http://www.w3.org/2000/svg" xmlns:xlink="http://www.w3.org/1999/xlink" x="0px" y="0px" viewBox="0 0 128 128" style="enable-background:new 0 0 128 128;" xml:space="preserve"> <g id="Layer_1"> </g> <g id="Layer_2"> <g> <g> <g> <path style="&st0;" d="M40.5,91L21.3,71.8c-2.4-2.5-2.4-6.5,0-8.9L60,24.2c2.5-2.5,6.5-2.5,8.9,0l2.6,2.6l5.7-6l-5.6-5.6 c-3.9-3.9-10.3-3.9-14.3,0l-45,45c-3.9,3.9-3.9,10.3,0,14.3L37.7,100L40.5,91z"/> <path style="&st0;" d="M116.6,60.3L90.5,34.1l-3.1,8.6l20.2,20.2c2.5,2.5,2.5,6.5,0,8.9l-38.7,38.7c-2.5,2.5-6.5,2.5-8.9,0 l-4.3-4.3l-5.7,6l7.3,7.3c3.9,3.9,10.3,3.9,14.3,0l45-45C120.6,70.6,120.6,64.2,116.6,60.3z"/> </g> <path style="&st0;" d="M100,0L77.9,61.6c-0.3,0.8-0.2,1.7,0.4,2.4c0.5,0.6,1.2,1,2,1c0.1,0,0.1,0,0.2,0L92,64l-60.2,64l17-55.2 c0.2-0.8,0.1-1.7-0.4-2.3c-0.5-0.6-1.2-0.9-2-0.9c-0.1,0-0.1,0-0.2,0l-12.1,1L100,0"/> </g> </g> </g> </svg>
